<svg width="148" height="24" viewBox="0 0 148 24" fill="none" xmlns="http://www.w3.org/2000/svg">
<path d="M9.55107 11.5948L14.6793 19H11.8083L7.39287 12.6838H5.27427V19H2.75967V7.2982H0.858866L2.12607 4.942H5.27427V10.5058H7.39287L11.5905 4.942H14.4417L9.55107 11.5948ZM13.9071 13.9312C13.9071 12.8356 14.1579 11.8786 14.6595 11.0602C15.1479 10.2946 15.8145 9.7072 16.6593 9.298C17.5041 8.8888 18.4149 8.6842 19.3917 8.6842C20.3949 8.6842 21.2991 8.8822 22.1043 9.2782C22.9491 9.6874 23.6157 10.2946 24.1041 11.0998C24.5925 11.8918 24.8367 12.8356 24.8367 13.9312C24.8367 15.04 24.5925 15.997 24.1041 16.8022C23.6157 17.5942 22.9491 18.208 22.1043 18.6436C21.2727 19.066 20.3685 19.2772 19.3917 19.2772C18.4281 19.2772 17.5239 19.066 16.6791 18.6436C15.8211 18.2212 15.1413 17.6074 14.6397 16.8022C14.1513 15.9838 13.9071 15.0268 13.9071 13.9312ZM56.6157 9.001H58.8531V10.3672C59.1963 9.8392 59.6517 9.4366 60.2193 9.1594C60.8001 8.869 61.5459 8.7238 62.4567 8.7238C63.3939 8.7238 64.2255 8.935 64.9515 9.3574C65.6511 9.793 66.1923 10.4134 66.5751 11.2186C66.9711 12.0106 67.1691 12.9214 67.1691 13.951C67.1691 14.9938 66.9711 15.9178 66.5751 16.723C66.1923 17.515 65.6511 18.1288 64.9515 18.5644C64.6215 18.7888 64.2321 18.9538 63.7833 19.0594C63.3477 19.1782 62.9055 19.2376 62.4567 19.2376C61.6779 19.2376 61.0971 19.1782 60.7143 19.0594C59.9223 18.8218 59.3613 18.4258 59.0313 17.8714V22.5442H56.6157V9.001ZM26.1237 9.001H28.5195V12.8026H32.6181V9.001H34.9941V19H32.6181V14.7826H28.5195V19H26.1237V9.001ZM36.0435 9.001H45.2505V10.9018H41.8449V19H39.4095V10.9018H36.0435V9.001ZM48.5571 9.001C49.4547 11.4562 50.2731 13.885 51.0123 16.2874C51.7119 13.9114 52.5039 11.4826 53.3883 9.001H55.8039L52.1211 19.198C51.8175 20.0296 51.5271 20.6698 51.2499 21.1186C50.9463 21.5674 50.5701 21.904 50.1213 22.1284C49.6857 22.366 49.1049 22.4848 48.3789 22.4848C47.9697 22.4848 47.7453 22.4782 47.7057 22.465L46.8939 20.5642C47.1447 20.617 47.4549 20.6434 47.8245 20.6434C48.2733 20.6434 48.6363 20.5774 48.9135 20.4454C49.1643 20.3398 49.3557 20.1946 49.4877 20.0098C49.6197 19.8382 49.7319 19.6204 49.8243 19.3564L46.0227 9.001H48.5571ZM16.3425 13.9114C16.3425 15.007 16.6065 15.8452 17.1345 16.426C17.6625 16.9936 18.3951 17.2774 19.3323 17.2774C20.2827 17.2774 21.0219 16.9936 21.5499 16.426C22.0911 15.8452 22.3617 15.007 22.3617 13.9114C22.3617 12.8422 22.0977 12.037 21.5697 11.4958C21.0417 10.9414 20.2959 10.6642 19.3323 10.6642C18.3819 10.6642 17.6427 10.9414 17.1147 11.4958C16.5999 12.037 16.3425 12.8422 16.3425 13.9114ZM58.9719 13.9312C58.9983 14.9212 59.2623 15.7132 59.7639 16.3072C60.2655 16.9012 60.9717 17.1982 61.8825 17.1982C62.7933 17.1982 63.4929 16.9012 63.9813 16.3072C64.4829 15.7132 64.7403 14.9212 64.7535 13.9312C64.7403 12.9544 64.4829 12.1756 63.9813 11.5948C63.4929 11.0008 62.7933 10.7038 61.8825 10.7038C60.9717 10.7038 60.2655 10.9942 59.7639 11.575C59.2623 12.1558 58.9983 12.9412 58.9719 13.9312Z" fill="#222222"/>
<path d="M70.5346 6.625C71.353 5.9254 72.1714 5.4238 72.9898 5.1202C73.8082 4.8034 74.7124 4.645 75.7024 4.645C77.8804 4.645 79.6294 5.338 80.9494 6.724C81.5698 7.384 82.0384 8.1628 82.3552 9.0604C82.6852 9.9448 82.8502 10.915 82.8502 11.971C82.8502 13.3834 82.5664 14.6308 81.9988 15.7132C81.418 16.8484 80.593 17.7328 79.5238 18.3664C78.4678 18.9868 77.2336 19.297 75.8212 19.297C75.0952 19.297 74.422 19.2178 73.8016 19.0594C73.1944 18.901 72.6136 18.6502 72.0592 18.307C71.5048 17.9638 70.9174 17.482 70.297 16.8616L71.386 15.6538C72.442 16.6306 73.4122 17.2444 74.2966 17.4952C74.8114 17.6404 75.3262 17.713 75.841 17.713C76.7914 17.713 77.6428 17.4952 78.3952 17.0596C79.1476 16.624 79.7482 16.0168 80.197 15.238C80.6458 14.4592 80.8966 13.5748 80.9494 12.5848H73.9402V11.0404H80.9296C80.8372 10.1032 80.56 9.265 80.098 8.5258C79.6492 7.7998 79.0486 7.2388 78.2962 6.8428C77.5438 6.4336 76.6858 6.229 75.7222 6.229C74.983 6.229 74.2834 6.3544 73.6234 6.6052C72.9766 6.856 72.3034 7.285 71.6038 7.8922L70.5346 6.625ZM88.464 14.5846H86.7414V19H85.0386V9.001H86.7414V13.1986H88.4838L91.7706 9.001H93.5922L89.85 13.8124L93.909 19H91.9686L88.464 14.5846ZM99.5179 19.2772C98.4883 19.2772 97.5841 19.066 96.8053 18.6436C96.0001 18.208 95.3797 17.6074 94.9441 16.8418C94.5085 16.0762 94.2907 15.1918 94.2907 14.1886V13.951C94.2907 12.9082 94.5151 11.9974 94.9639 11.2186C95.3995 10.4266 96.0133 9.8128 96.8053 9.3772C97.5973 8.9416 98.4949 8.7238 99.4981 8.7238C100.435 8.7238 101.241 8.869 101.914 9.1594C102.587 9.4366 103.194 9.9052 103.735 10.5652L102.666 11.6146C102.204 11.0734 101.722 10.6972 101.221 10.486C100.732 10.2616 100.152 10.1494 99.4783 10.1494C98.7391 10.1494 98.1187 10.3144 97.6171 10.6444C97.1155 10.9744 96.7261 11.4364 96.4489 12.0304C96.1717 12.6244 96.0331 13.2646 96.0331 13.951V14.1886C96.0331 14.8486 96.1717 15.4492 96.4489 15.9904C96.7261 16.558 97.1287 17.0068 97.6567 17.3368C98.1847 17.6668 98.8051 17.8318 99.5179 17.8318C99.9403 17.8318 100.343 17.779 100.726 17.6734C101.082 17.5678 101.412 17.4094 101.716 17.1982C102.019 16.987 102.363 16.6636 102.745 16.228L103.854 17.1586C103.273 17.911 102.64 18.4522 101.953 18.7822C101.28 19.1122 100.468 19.2772 99.5179 19.2772ZM109.878 10.387V19H108.175V10.387H104.671V9.001H113.383V10.387H109.878ZM123.882 17.2576C123.182 17.9836 122.482 18.505 121.783 18.8218C121.083 19.1254 120.265 19.2772 119.328 19.2772C118.272 19.2772 117.354 19.0594 116.575 18.6238C115.783 18.1882 115.17 17.5744 114.734 16.7824C114.298 15.9904 114.081 15.0664 114.081 14.0104C114.081 13.0072 114.292 12.0964 114.714 11.278C115.15 10.4728 115.75 9.8458 116.516 9.397C117.295 8.9482 118.199 8.7238 119.229 8.7238C120.681 8.7238 121.809 9.1528 122.614 10.0108C123.433 10.8688 123.842 12.0502 123.842 13.555C123.842 13.6474 123.829 13.8916 123.802 14.2876H115.843C115.909 15.0004 116.074 15.6142 116.338 16.129C116.628 16.6702 117.031 17.0926 117.546 17.3962C118.06 17.6998 118.681 17.8516 119.407 17.8516C120.093 17.8516 120.7 17.7262 121.228 17.4754C121.77 17.2246 122.317 16.8022 122.872 16.2082L123.882 17.2576ZM122.218 13.0402C122.179 12.1294 121.888 11.41 121.347 10.882C120.819 10.3408 120.106 10.0702 119.209 10.0702C118.324 10.0702 117.585 10.3408 116.991 10.882C116.397 11.41 116.034 12.1294 115.902 13.0402H122.218ZM136.075 14.0104C136.075 15.04 135.877 15.9508 135.481 16.7428C135.071 17.5348 134.497 18.1486 133.758 18.5842C133.019 19.0198 132.174 19.2376 131.224 19.2376C129.442 19.2376 128.188 18.6766 127.462 17.5546V22.564H125.759V9.001H127.343V10.7632C128.122 9.4168 129.422 8.7436 131.243 8.7436C132.167 8.7436 132.999 8.9548 133.738 9.3772C134.477 9.826 135.052 10.4398 135.461 11.2186C135.87 11.9974 136.075 12.895 136.075 13.9114V14.0104ZM134.352 13.9114C134.352 13.1722 134.213 12.5188 133.936 11.9512C133.646 11.3968 133.237 10.9612 132.709 10.6444C132.194 10.3276 131.606 10.1692 130.946 10.1692C130.273 10.1692 129.666 10.321 129.125 10.6246C128.57 10.9414 128.141 11.377 127.838 11.9314C127.534 12.4858 127.382 13.1458 127.382 13.9114V14.0104C127.382 15.1588 127.706 16.0828 128.353 16.7824C128.999 17.4688 129.857 17.812 130.927 17.812C131.587 17.812 132.181 17.647 132.709 17.317C133.223 17.0002 133.626 16.558 133.916 15.9904C134.207 15.4096 134.352 14.7496 134.352 14.0104V13.9114ZM144.89 19V14.5648H139.88V19H138.178V9.001H139.88V13.1788H144.89V9.001H146.593V19H144.89Z" fill="#FC7630"/>
</svg>
